<?xml version="1.0" encoding="UTF-8" standalone="no"?>
<svg
   xmlns:dc="http://purl.org/dc/elements/1.1/"
   xmlns:cc="http://creativecommons.org/ns#"
   xmlns:rdf="http://www.w3.org/1999/02/22-rdf-syntax-ns#"
   xmlns:svg="http://www.w3.org/2000/svg"
   xmlns="http://www.w3.org/2000/svg"
   xmlns:xlink="http://www.w3.org/1999/xlink"
   xmlns:sodipodi="http://sodipodi.sourceforge.net/DTD/sodipodi-0.dtd"
   xmlns:inkscape="http://www.inkscape.org/namespaces/inkscape"
   height="30"
   width="30"
   xml:space="preserve"
   viewBox="0 0 30 30"
   y="0px"
   x="0px"
   id="Layer_1"
   version="1.1"
   sodipodi:docname="edit-xlsx.svg"
   inkscape:version="0.92.3 (2405546, 2018-03-11)"><sodipodi:namedview
   pagecolor="#ffffff"
   bordercolor="#666666"
   borderopacity="1"
   objecttolerance="10"
   gridtolerance="10"
   guidetolerance="10"
   inkscape:pageopacity="0"
   inkscape:pageshadow="2"
   inkscape:window-width="1920"
   inkscape:window-height="1051"
   id="namedview1531"
   showgrid="false"
   inkscape:zoom="11.8"
   inkscape:cx="10"
   inkscape:cy="9.279661"
   inkscape:window-x="-9"
   inkscape:window-y="-9"
   inkscape:window-maximized="1"
   inkscape:current-layer="Layer_1" /><metadata
   id="metadata85"><rdf:RDF><cc:Work
       rdf:about=""><dc:format>image/svg+xml</dc:format><dc:type
         rdf:resource="http://purl.org/dc/dcmitype/StillImage" /><dc:title></dc:title></cc:Work></rdf:RDF></metadata><defs
   id="defs83"><clipPath
     id="clipEmfPath1"
     clipPathUnits="userSpaceOnUse"><path
       id="path1954"
       d="M 5.7565112,5.5966081 H 45.892187 V 47.651121 H 5.7565112 Z"
       inkscape:connector-curvature="0" /></clipPath><clipPath
     id="clipEmfPath1-1"
     clipPathUnits="userSpaceOnUse"><path
       id="path1954-3"
       d="M 5.7565112,5.5966081 H 45.892187 V 47.651121 H 5.7565112 Z"
       inkscape:connector-curvature="0" /></clipPath></defs>
<style
   id="style2"
   type="text/css">
	.st0{opacity:0.4;fill:#231F20;}
	.st1{fill:#FFFFFF;}
	.st2{fill-rule:evenodd;clip-rule:evenodd;fill:#86BFA0;}
	.st3{fill-rule:evenodd;clip-rule:evenodd;fill:#999999;}
	.st4{fill:#207347;}
	.st5{enable-background:new    ;}
	.st6{clip-path:url(#SVGID_2_);}
</style>

<g
   transform="matrix(0.67989214,0,0,0.67989214,-2.0396765,-1.2750384)"
   id="g935"><g
     id="_x34_8">
	<polygon
   class="st0"
   points="8,46 8,2 31.5,2 42,12.5 42,46 "
   id="polygon4"
   style="opacity:0.4;fill:#231f20" />
	<polygon
   class="st1"
   points="9,3 31,3 41,13 41,45 9,45 "
   id="polygon6"
   style="fill:#ffffff" />
	<g
   id="g28">
		<rect
   x="21"
   y="37"
   class="st2"
   width="8"
   height="5"
   id="rect8"
   style="clip-rule:evenodd;fill:#86bfa0;fill-rule:evenodd" />
		<rect
   x="30"
   y="37"
   class="st2"
   width="8"
   height="5"
   id="rect10"
   style="clip-rule:evenodd;fill:#86bfa0;fill-rule:evenodd" />
		<rect
   x="21"
   y="31"
   class="st2"
   width="8"
   height="5"
   id="rect12"
   style="clip-rule:evenodd;fill:#86bfa0;fill-rule:evenodd" />
		<rect
   x="30"
   y="31"
   class="st2"
   width="8"
   height="5"
   id="rect14"
   style="clip-rule:evenodd;fill:#86bfa0;fill-rule:evenodd" />
		<rect
   x="21"
   y="25"
   class="st2"
   width="8"
   height="5"
   id="rect16"
   style="clip-rule:evenodd;fill:#86bfa0;fill-rule:evenodd" />
		<rect
   x="30"
   y="25"
   class="st2"
   width="8"
   height="5"
   id="rect18"
   style="clip-rule:evenodd;fill:#86bfa0;fill-rule:evenodd" />
		<rect
   x="21"
   y="19"
   class="st2"
   width="8"
   height="5"
   id="rect20"
   style="clip-rule:evenodd;fill:#86bfa0;fill-rule:evenodd" />
		<rect
   x="30"
   y="19"
   class="st2"
   width="8"
   height="5"
   id="rect22"
   style="clip-rule:evenodd;fill:#86bfa0;fill-rule:evenodd" />
		<rect
   x="21"
   y="13"
   class="st2"
   width="8"
   height="5"
   id="rect24"
   style="clip-rule:evenodd;fill:#86bfa0;fill-rule:evenodd" />
		<rect
   x="30"
   y="13"
   class="st2"
   width="8"
   height="5"
   id="rect26"
   style="clip-rule:evenodd;fill:#86bfa0;fill-rule:evenodd" />
	</g>
	<g
   id="g46">
		<rect
   x="12"
   y="37"
   class="st3"
   width="8"
   height="5"
   id="rect30"
   style="clip-rule:evenodd;fill:#999999;fill-rule:evenodd" />
		<rect
   x="12"
   y="31"
   class="st3"
   width="8"
   height="5"
   id="rect32"
   style="clip-rule:evenodd;fill:#999999;fill-rule:evenodd" />
		<rect
   x="12"
   y="25"
   class="st3"
   width="8"
   height="5"
   id="rect34"
   style="clip-rule:evenodd;fill:#999999;fill-rule:evenodd" />
		<rect
   x="12"
   y="19"
   class="st3"
   width="8"
   height="5"
   id="rect36"
   style="clip-rule:evenodd;fill:#999999;fill-rule:evenodd" />
		<rect
   x="12"
   y="13"
   class="st3"
   width="8"
   height="5"
   id="rect38"
   style="clip-rule:evenodd;fill:#999999;fill-rule:evenodd" />
		<rect
   x="21"
   y="7"
   class="st3"
   width="8"
   height="5"
   id="rect40"
   style="clip-rule:evenodd;fill:#999999;fill-rule:evenodd" />
		<rect
   x="30"
   y="7"
   class="st3"
   width="4"
   height="5"
   id="rect42"
   style="clip-rule:evenodd;fill:#999999;fill-rule:evenodd" />
		<rect
   x="12"
   y="7"
   class="st3"
   width="8"
   height="5"
   id="rect44"
   style="clip-rule:evenodd;fill:#999999;fill-rule:evenodd" />
	</g>
	<polygon
   class="st1"
   points="32,4 40,12 32,12 "
   id="polygon48"
   style="fill:#ffffff" />
	<polygon
   class="st0"
   points="32,13 41,13 40.3,12 32,12 32,3.8 31,3 31,12 31,13 "
   id="polygon50"
   style="opacity:0.4;fill:#231f20" />
</g><g
     id="_x34_8_2_">
	<polygon
   class="st1"
   points="9,41.3 22,43.2 22,13.8 9,15.7 "
   id="polygon53"
   style="fill:#ffffff" />
	<polygon
   class="st4"
   points="21,42 3,39.4 3,17.6 21,15 "
   id="polygon55"
   style="fill:#207347" />
	<g
   id="g77">
		<g
   id="g75">
			<g
   class="st5"
   id="g73"
   style="enable-background:new">
				<defs
   id="defs58">
					<polygon
   id="SVGID_1_"
   class="st5"
   points="16.2,23.1 16.2,34 7.6,34 7.6,23.2 "
   style="enable-background:new" />
				</defs>
				<clipPath
   id="SVGID_2_">
					<use
   xlink:href="#SVGID_1_"
   style="overflow:visible"
   id="use60"
   x="0"
   y="0"
   width="100%"
   height="100%" />
				</clipPath>
				<g
   class="st6"
   clip-path="url(#SVGID_2_)"
   id="g71">
					<g
   id="g69">
						<g
   id="g67">
							<g
   id="g65">
								<polyline
   class="st1"
   points="16.1,23.1 13.8,23.1 12,27 11.9,27 10.4,23.2 7.8,23.2 10.5,28.6 7.6,34 10,34 11.9,30           11.9,30 13.7,34 16.2,34 13.3,28.5 16.1,23.1         "
   id="polyline63"
   style="fill:#ffffff" />
							</g>
						</g>
					</g>
				</g>
			</g>
		</g>
	</g>
</g></g>
<path
   transform="matrix(0.30609432,0,0,0.30609432,15.579435,13.425004)"
   id="path1960"
   d="M 17.129618,41.834646 C 6.316172,44.692913 6.316172,44.692913 6.316172,44.692913 9.0745003,34.159297 9.0745003,34.159297 9.0745003,34.159297 34.938825,8.3949122 34.938825,8.3949122 34.938825,8.3949122 c 2.17868,-2.0787402 5.636584,-2.0787402 7.695336,0 2.058752,2.0587518 2.058752,5.4966688 0,7.6753478 z M 32.980012,10.333737 c 7.815264,7.675348 7.815264,7.675348 7.815264,7.675348 M 17.129618,41.834646 c 0,0 0.459722,-2.638401 -2.298606,-5.716536 -2.758329,-3.098122 -5.7565117,-1.958813 -5.7565117,-1.958813"
   clip-path="url(#clipEmfPath1-1)"
   style="fill:#505050;fill-opacity:1;stroke:#ffffff;stroke-width:1.59903085px;stroke-linecap:butt;stroke-linejoin:miter;stroke-miterlimit:8;stroke-dasharray:none;stroke-opacity:1"
   inkscape:connector-curvature="0" /></svg>