<?xml version="1.0" encoding="UTF-8" standalone="no"?>
<svg
   xmlns:dc="http://purl.org/dc/elements/1.1/"
   xmlns:cc="http://creativecommons.org/ns#"
   xmlns:rdf="http://www.w3.org/1999/02/22-rdf-syntax-ns#"
   xmlns:svg="http://www.w3.org/2000/svg"
   xmlns="http://www.w3.org/2000/svg"
   xmlns:xlink="http://www.w3.org/1999/xlink"
   xmlns:sodipodi="http://sodipodi.sourceforge.net/DTD/sodipodi-0.dtd"
   xmlns:inkscape="http://www.inkscape.org/namespaces/inkscape"
   height="30"
   width="30"
   xml:space="preserve"
   viewBox="0 0 30 30"
   y="0px"
   x="0px"
   id="Layer_1"
   version="1.1"
   sodipodi:docname="edit-docx.svg"
   inkscape:version="0.92.3 (2405546, 2018-03-11)"><sodipodi:namedview
   pagecolor="#ffffff"
   bordercolor="#666666"
   borderopacity="1"
   objecttolerance="10"
   gridtolerance="10"
   guidetolerance="10"
   inkscape:pageopacity="0"
   inkscape:pageshadow="2"
   inkscape:window-width="1920"
   inkscape:window-height="1051"
   id="namedview8340"
   showgrid="false"
   inkscape:zoom="11.8"
   inkscape:cx="-14.194915"
   inkscape:cy="8.559322"
   inkscape:window-x="-9"
   inkscape:window-y="-9"
   inkscape:window-maximized="1"
   inkscape:current-layer="Layer_1" /><metadata
   id="metadata90"><rdf:RDF><cc:Work
       rdf:about=""><dc:format>image/svg+xml</dc:format><dc:type
         rdf:resource="http://purl.org/dc/dcmitype/StillImage" /><dc:title></dc:title></cc:Work></rdf:RDF></metadata><defs
   id="defs88"><clipPath
     id="clipEmfPath1"
     clipPathUnits="userSpaceOnUse"><path
       id="path1954"
       d="M 5.7565112,5.5966081 H 45.892187 V 47.651121 H 5.7565112 Z"
       inkscape:connector-curvature="0" /></clipPath><pattern
     y="0"
     x="0"
     height="6"
     width="6"
     patternUnits="userSpaceOnUse"
     id="EMFhbasepattern" /></defs>
<style
   id="style2"
   type="text/css">
	.st0{opacity:0.4;fill:#231F20;}
	.st1{fill:#FFFFFF;}
	.st2{fill:#999999;}
	.st3{fill:#2B579A;}
	.st4{enable-background:new    ;}
	.st5{clip-path:url(#SVGID_2_);}
</style>





<g
   transform="matrix(0.67604005,0,0,0.67604005,-2.0281202,-1.0978425)"
   id="g924"><polygon
     style="opacity:0.4;fill:#231f20"
     class="st0"
     points="8,46 8,2 31.5,2 42,12.5 42,46 "
     id="polygon4" /><polygon
     style="fill:#ffffff"
     class="st1"
     points="9,3 31,3 41,13 41,45 9,45 "
     id="polygon6" /><g
     id="g22">
	<rect
   x="12"
   y="14"
   class="st2"
   width="26"
   height="2"
   id="rect8"
   style="fill:#999999" />
	<rect
   x="12"
   y="9"
   class="st2"
   width="21"
   height="2"
   id="rect10"
   style="fill:#999999" />
	<rect
   x="12"
   y="19"
   class="st2"
   width="26"
   height="2"
   id="rect12"
   style="fill:#999999" />
	<rect
   x="12"
   y="29"
   class="st2"
   width="26"
   height="2"
   id="rect14"
   style="fill:#999999" />
	<rect
   x="12"
   y="24"
   class="st2"
   width="26"
   height="2"
   id="rect16"
   style="fill:#999999" />
	<rect
   x="12"
   y="39"
   class="st2"
   width="26"
   height="2"
   id="rect18"
   style="fill:#999999" />
	<rect
   x="12"
   y="34"
   class="st2"
   width="26"
   height="2"
   id="rect20"
   style="fill:#999999" />
</g><polygon
     style="fill:#ffffff"
     class="st1"
     points="32,4 40,12 32,12 "
     id="polygon24" /><polygon
     style="opacity:0.4;fill:#231f20"
     class="st0"
     points="31,13 32,13 41,13 40.3,12 32,12 32,3.8 31,3 31,12 "
     id="polygon26" /><g
     id="_x34_8_1_">
	<polygon
   class="st1"
   points="9,41.3 22,43.2 22,13.8 9,14 "
   id="polygon28"
   style="fill:#ffffff" />
	<polygon
   class="st3"
   points="21,42 3,39.4 3,17.6 21,15 "
   id="polygon30"
   style="fill:#2b579a" />
	<g
   id="g52">
		<g
   id="g50">
			<g
   class="st4"
   id="g48"
   style="enable-background:new">
				<defs
   id="defs33">
					<polygon
   id="SVGID_1_"
   class="st4"
   points="5.7,23.2 18.8,23.1 18.8,34 5.7,34 "
   style="enable-background:new" />
				</defs>
				<clipPath
   id="SVGID_2_">
					<use
   xlink:href="#SVGID_1_"
   style="overflow:visible"
   id="use35"
   x="0"
   y="0"
   width="100%"
   height="100%" />
				</clipPath>
				<g
   class="st5"
   clip-path="url(#SVGID_2_)"
   id="g46">
					<g
   id="g44">
						<g
   id="g42">
							<g
   id="g40">
								<polyline
   class="st1"
   points="18.8,23.1 16.7,23.1 15.3,31.2 15.2,31.2 13.6,23.1 11.3,23.2 9.5,31.1 9.4,31.1 8,23.2           5.7,23.2 8.1,34 10.5,34 12.3,26.3 12.3,26.3 14,34 16.3,34 18.8,23.1         "
   id="polyline38"
   style="fill:#ffffff" />
							</g>
						</g>
					</g>
				</g>
			</g>
		</g>
	</g>
</g></g>
<g
   transform="translate(0,-18)"
   id="g55">
</g>
<g
   transform="translate(0,-18)"
   id="g57">
</g>
<g
   transform="translate(0,-18)"
   id="g59">
</g>
<g
   transform="translate(0,-18)"
   id="g61">
</g>
<g
   transform="translate(0,-18)"
   id="g63">
</g>
<g
   transform="translate(0,-18)"
   id="g65">
</g>
<g
   transform="translate(0,-18)"
   id="g67">
</g>
<g
   transform="translate(0,-18)"
   id="g69">
</g>
<g
   transform="translate(0,-18)"
   id="g71">
</g>
<g
   transform="translate(0,-18)"
   id="g73">
</g>
<g
   transform="translate(0,-18)"
   id="g75">
</g>
<g
   transform="translate(0,-18)"
   id="g77">
</g>
<g
   transform="translate(0,-18)"
   id="g79">
</g>
<g
   transform="translate(0,-18)"
   id="g81">
</g>
<g
   style="display:inline"
   transform="translate(0,-18)"
   id="g83">
</g>
<path
   transform="matrix(0.30609432,0,0,0.30609432,15.920257,12.903977)"
   id="path1960"
   d="M 17.129618,41.834646 C 6.316172,44.692913 6.316172,44.692913 6.316172,44.692913 9.0745003,34.159297 9.0745003,34.159297 9.0745003,34.159297 34.938825,8.3949122 34.938825,8.3949122 34.938825,8.3949122 c 2.17868,-2.0787402 5.636584,-2.0787402 7.695336,0 2.058752,2.0587518 2.058752,5.4966688 0,7.6753478 z M 32.980012,10.333737 c 7.815264,7.675348 7.815264,7.675348 7.815264,7.675348 M 17.129618,41.834646 c 0,0 0.459722,-2.638401 -2.298606,-5.716536 -2.758329,-3.098122 -5.7565117,-1.958813 -5.7565117,-1.958813"
   clip-path="url(#clipEmfPath1)"
   style="fill:#505050;fill-opacity:1;stroke:#ffffff;stroke-width:1.59903085px;stroke-linecap:butt;stroke-linejoin:miter;stroke-miterlimit:8;stroke-dasharray:none;stroke-opacity:1"
   inkscape:connector-curvature="0" /></svg>