<?xml version="1.0" encoding="UTF-8" standalone="no"?>
<svg
   xmlns:dc="http://purl.org/dc/elements/1.1/"
   xmlns:cc="http://creativecommons.org/ns#"
   xmlns:rdf="http://www.w3.org/1999/02/22-rdf-syntax-ns#"
   xmlns:svg="http://www.w3.org/2000/svg"
   xmlns="http://www.w3.org/2000/svg"
   id="svg1405"
   height="20"
   width="20"
   version="1.0">
  <metadata
     id="metadata1409">
    <rdf:RDF>
      <cc:Work
         rdf:about="">
        <dc:format>image/svg+xml</dc:format>
        <dc:type
           rdf:resource="http://purl.org/dc/dcmitype/StillImage" />
        <dc:title></dc:title>
      </cc:Work>
    </rdf:RDF>
  </metadata>
  <defs
     id="defs1401">
    <clipPath
       id="clipEmfPath1"
       clipPathUnits="userSpaceOnUse">
      <path
         id="path1397"
         d="M 5.7565112,4.9569958 H 43.653543 V 47.331314 H 5.7565112 Z" />
    </clipPath>
    <pattern
       y="0"
       x="0"
       height="6"
       width="6"
       patternUnits="userSpaceOnUse"
       id="EMFhbasepattern" />
  </defs>
  <path
     transform="matrix(0.50030304,0,0,0.50030304,-2.1933638,-2.7600001)"
     id="path1403"
     d="m 37.077529,16.54997 c -10.253786,0 -10.253786,0 -10.253786,0 0,-10.233798 0,-10.233798 0,-10.233798 m 10.253786,13.851605 c 0,-3.617807 0,-3.617807 0,-3.617807 C 26.823743,6.316172 26.823743,6.316172 26.823743,6.316172 c -20.507571,0 -20.507571,0 -20.507571,0 0,38.376741 0,38.376741 0,38.376741 11.033313,0 11.033313,0 11.033313,0 m 4.817081,-0.459721 c 5.136886,-1.299213 5.136886,-1.299213 5.136886,-1.299213 14.09146,-14.111447 14.09146,-14.111447 14.09146,-14.111447 1.059358,-1.03937 1.059358,-2.778316 0,-3.837674 -0.479709,-0.47971 -1.179285,-0.75954 -1.918837,-0.75954 -0.739552,0 -1.439128,0.27983 -1.918837,0.75954 -14.09146,14.111447 -14.09146,14.111447 -14.09146,14.111447 z"
     clip-path="url(#clipEmfPath1)"
     style="fill:none;stroke:#505050;stroke-width:1.59903085px;stroke-linecap:butt;stroke-linejoin:miter;stroke-miterlimit:8;stroke-dasharray:none;stroke-opacity:1" />
</svg>
