<?xml version="1.0" encoding="UTF-8" standalone="no"?>
<svg
   xmlns:dc="http://purl.org/dc/elements/1.1/"
   xmlns:cc="http://creativecommons.org/ns#"
   xmlns:rdf="http://www.w3.org/1999/02/22-rdf-syntax-ns#"
   xmlns:svg="http://www.w3.org/2000/svg"
   xmlns="http://www.w3.org/2000/svg"
   id="svg1962"
   height="20"
   width="20"
   version="1.0">
  <metadata
     id="metadata1966">
    <rdf:RDF>
      <cc:Work
         rdf:about="">
        <dc:format>image/svg+xml</dc:format>
        <dc:type
           rdf:resource="http://purl.org/dc/dcmitype/StillImage" />
        <dc:title></dc:title>
      </cc:Work>
    </rdf:RDF>
  </metadata>
  <defs
     id="defs1958">
    <clipPath
       id="clipEmfPath1"
       clipPathUnits="userSpaceOnUse">
      <path
         id="path1954"
         d="M 5.7565112,5.5966081 H 45.892187 V 47.651121 H 5.7565112 Z" />
    </clipPath>
    <pattern
       y="0"
       x="0"
       height="6"
       width="6"
       patternUnits="userSpaceOnUse"
       id="EMFhbasepattern" />
  </defs>
  <path
     transform="matrix(0.50277284,0,0,0.50277284,-2.7538663,-3.0350839)"
     id="path1960"
     d="M 17.129618,41.834646 C 6.316172,44.692913 6.316172,44.692913 6.316172,44.692913 9.0745003,34.159297 9.0745003,34.159297 9.0745003,34.159297 34.938825,8.3949122 34.938825,8.3949122 34.938825,8.3949122 c 2.17868,-2.0787402 5.636584,-2.0787402 7.695336,0 2.058752,2.0587518 2.058752,5.4966688 0,7.6753478 z M 32.980012,10.333737 c 7.815264,7.675348 7.815264,7.675348 7.815264,7.675348 M 17.129618,41.834646 c 0,0 0.459722,-2.638401 -2.298606,-5.716536 -2.758329,-3.098122 -5.7565117,-1.958813 -5.7565117,-1.958813"
     clip-path="url(#clipEmfPath1)"
     style="fill:none;stroke:#505050;stroke-width:1.59903085px;stroke-linecap:butt;stroke-linejoin:miter;stroke-miterlimit:8;stroke-dasharray:none;stroke-opacity:1" />
</svg>
