<?xml version="1.0" encoding="UTF-8" standalone="no"?>
<svg
   xmlns:dc="http://purl.org/dc/elements/1.1/"
   xmlns:cc="http://creativecommons.org/ns#"
   xmlns:rdf="http://www.w3.org/1999/02/22-rdf-syntax-ns#"
   xmlns:svg="http://www.w3.org/2000/svg"
   xmlns="http://www.w3.org/2000/svg"
   xmlns:xlink="http://www.w3.org/1999/xlink"
   xmlns:sodipodi="http://sodipodi.sourceforge.net/DTD/sodipodi-0.dtd"
   xmlns:inkscape="http://www.inkscape.org/namespaces/inkscape"
   height="30"
   width="30"
   xml:space="preserve"
   viewBox="0 0 30 30"
   y="0px"
   x="0px"
   id="Layer_1"
   version="1.1"
   sodipodi:docname="edit-pptx.svg"
   inkscape:version="0.92.3 (2405546, 2018-03-11)"><sodipodi:namedview
   pagecolor="#ffffff"
   bordercolor="#666666"
   borderopacity="1"
   objecttolerance="10"
   gridtolerance="10"
   guidetolerance="10"
   inkscape:pageopacity="0"
   inkscape:pageshadow="2"
   inkscape:window-width="1920"
   inkscape:window-height="1051"
   id="namedview865"
   showgrid="false"
   inkscape:zoom="20.625"
   inkscape:cx="4.2841574"
   inkscape:cy="11.775455"
   inkscape:window-x="-9"
   inkscape:window-y="-9"
   inkscape:window-maximized="1"
   inkscape:current-layer="Layer_1" /><metadata
   id="metadata89"><rdf:RDF><cc:Work
       rdf:about=""><dc:format>image/svg+xml</dc:format><dc:type
         rdf:resource="http://purl.org/dc/dcmitype/StillImage" /><dc:title></dc:title></cc:Work></rdf:RDF></metadata><defs
   id="defs87"><clipPath
     id="clipEmfPath1"
     clipPathUnits="userSpaceOnUse"><path
       id="path1954"
       d="M 5.7565112,5.5966081 H 45.892187 V 47.651121 H 5.7565112 Z"
       inkscape:connector-curvature="0" /></clipPath><clipPath
     id="clipEmfPath1-3"
     clipPathUnits="userSpaceOnUse"><path
       id="path1954-0"
       d="M 5.7565112,5.5966081 H 45.892187 V 47.651121 H 5.7565112 Z"
       inkscape:connector-curvature="0" /></clipPath></defs>
<style
   id="style2"
   type="text/css">
	.st0{opacity:0.4;fill:#231F20;}
	.st1{fill:#FFFFFF;}
	.st2{fill:#F5BA9D;}
	.st3{fill:#949494;}
	.st4{fill:#D04727;}
	.st5{enable-background:new    ;}
	.st6{clip-path:url(#SVGID_2_);}
</style>

<g
   transform="matrix(0.67933884,0,0,0.67933884,-2.0380166,-1.2495867)"
   id="g923"><g
     id="_x34_8_1_">
	<polygon
   class="st0"
   points="8,46 8,2 31.5,2 42,12.5 42,46 "
   id="polygon4"
   style="opacity:0.4;fill:#231f20" />
	<polygon
   class="st1"
   points="9,3 31,3 41,13 41,45 9,45 "
   id="polygon6"
   style="fill:#ffffff" />
	<g
   id="g16">
		<rect
   x="12"
   y="30"
   class="st2"
   width="26"
   height="2"
   id="rect8"
   style="fill:#f5ba9d" />
		<rect
   x="12"
   y="34"
   class="st2"
   width="26"
   height="2"
   id="rect10"
   style="fill:#f5ba9d" />
		<rect
   x="12"
   y="38"
   class="st2"
   width="26"
   height="2"
   id="rect12"
   style="fill:#f5ba9d" />
		<rect
   x="14"
   y="30"
   class="st1"
   width="2"
   height="10"
   id="rect14"
   style="fill:#ffffff" />
	</g>
	<path
   class="st3"
   d="m 25,9 c -5,0 -9,4 -9,9 0,5 4,9 9,9 5,0 9,-4 9,-9 h -9 z"
   id="path18"
   style="fill:#949494"
   inkscape:connector-curvature="0" />
	<path
   class="st2"
   d="m 27,7 v 9 h 9 C 36,11 32,7 27,7 Z"
   id="path20"
   style="fill:#f5ba9d"
   inkscape:connector-curvature="0" />
	<polygon
   class="st1"
   points="32,4 40,12 32,12 "
   id="polygon22"
   style="fill:#ffffff" />
	<polygon
   class="st0"
   points="32,13 41,13 40.3,12 32,12 32,3.8 31,3 31,12 31,13 "
   id="polygon24"
   style="opacity:0.4;fill:#231f20" />
</g><g
     id="_x34_8_6_">
	<polygon
   class="st1"
   points="9,41.3 22,43.2 22,13.8 9,15.7 "
   id="polygon27"
   style="fill:#ffffff" />
	<polygon
   class="st4"
   points="21,42 3,39.4 3,17.6 21,15 "
   id="polygon29"
   style="fill:#d04727" />
	<g
   id="g51">
		<g
   id="g49">
			<g
   class="st5"
   id="g47"
   style="enable-background:new">
				<defs
   id="defs32">
					<polygon
   id="SVGID_1_"
   class="st5"
   points="15.9,23.1 15.9,34 9.1,34 9.1,23.2 "
   style="enable-background:new" />
				</defs>
				<clipPath
   id="SVGID_2_">
					<use
   xlink:href="#SVGID_1_"
   style="overflow:visible"
   id="use34"
   x="0"
   y="0"
   width="100%"
   height="100%" />
				</clipPath>
				<g
   class="st6"
   clip-path="url(#SVGID_2_)"
   id="g45">
					<g
   id="g43">
						<g
   id="g41">
							<g
   id="g39">
								<path
   class="st1"
   d="M 11.2,28.4 V 25 H 12 c 0.3,0 0.5,0 0.7,0.1 0.2,0.1 0.4,0.2 0.5,0.3 0.1,0.1 0.2,0.3 0.3,0.5 0.1,0.2 0.1,0.5 0.1,0.7 0,0.3 0,0.5 -0.1,0.8 -0.1,0.2 -0.2,0.4 -0.3,0.5 -0.1,0.1 -0.3,0.2 -0.5,0.3 -0.2,0.1 -0.5,0.1 -0.7,0.1 l -0.8,0.1 m 1.2,-5.3 H 9.1 v 10.8 h 2.1 v -3.7 h 1 c 0.2,0 0.4,0 0.5,0 0.2,0 0.3,0 0.5,-0.1 0.2,0 0.3,-0.1 0.5,-0.1 0.2,-0.1 0.3,-0.1 0.4,-0.2 0.1,-0.1 0.3,-0.2 0.4,-0.2 0.1,-0.1 0.2,-0.2 0.4,-0.3 0.1,-0.1 0.2,-0.2 0.3,-0.3 0.1,-0.1 0.2,-0.3 0.3,-0.4 0.1,-0.1 0.1,-0.3 0.2,-0.4 0.1,-0.1 0.1,-0.3 0.1,-0.5 0,-0.2 0.1,-0.3 0.1,-0.5 0,-0.2 0,-0.3 0,-0.5 0,-0.6 -0.1,-1.1 -0.2,-1.5 -0.1,-0.4 -0.4,-0.8 -0.7,-1.1 -0.3,-0.3 -0.7,-0.5 -1.1,-0.6 -0.4,-0.3 -1,-0.4 -1.5,-0.4"
   id="path37"
   style="fill:#ffffff"
   inkscape:connector-curvature="0" />
							</g>
						</g>
					</g>
				</g>
			</g>
		</g>
	</g>
</g></g>
<g
   transform="translate(0,-18)"
   id="g54">
</g>
<g
   transform="translate(0,-18)"
   id="g56">
</g>
<g
   transform="translate(0,-18)"
   id="g58">
</g>
<g
   transform="translate(0,-18)"
   id="g60">
</g>
<g
   transform="translate(0,-18)"
   id="g62">
</g>
<g
   transform="translate(0,-18)"
   id="g64">
</g>
<g
   transform="translate(0,-18)"
   id="g66">
</g>
<g
   transform="translate(0,-18)"
   id="g68">
</g>
<g
   transform="translate(0,-18)"
   id="g70">
</g>
<g
   transform="translate(0,-18)"
   id="g72">
</g>
<g
   transform="translate(0,-18)"
   id="g74">
</g>
<g
   transform="translate(0,-18)"
   id="g76">
</g>
<g
   transform="translate(0,-18)"
   id="g78">
</g>
<g
   transform="translate(0,-18)"
   id="g80">
</g>
<g
   transform="translate(0,-18)"
   id="g82">
</g>
<path
   transform="matrix(0.30609432,0,0,0.30609432,15.895894,12.46408)"
   id="path1960"
   d="M 17.129618,41.834646 C 6.316172,44.692913 6.316172,44.692913 6.316172,44.692913 9.0745003,34.159297 9.0745003,34.159297 9.0745003,34.159297 34.938825,8.3949122 34.938825,8.3949122 34.938825,8.3949122 c 2.17868,-2.0787402 5.636584,-2.0787402 7.695336,0 2.058752,2.0587518 2.058752,5.4966688 0,7.6753478 z M 32.980012,10.333737 c 7.815264,7.675348 7.815264,7.675348 7.815264,7.675348 M 17.129618,41.834646 c 0,0 0.459722,-2.638401 -2.298606,-5.716536 -2.758329,-3.098122 -5.7565117,-1.958813 -5.7565117,-1.958813"
   clip-path="url(#clipEmfPath1-3)"
   style="fill:#505050;fill-opacity:1;stroke:#ffffff;stroke-width:1.59903085px;stroke-linecap:butt;stroke-linejoin:miter;stroke-miterlimit:8;stroke-dasharray:none;stroke-opacity:1"
   inkscape:connector-curvature="0"
   inkscape:transform-center-x="-3.3087672"
   inkscape:transform-center-y="-2.4738307" /></svg>